<svg xmlns="http://www.w3.org/2000/svg" fill="none" viewBox="0 0 661 686">
  <path fill="#FD3" d="M2.5 342.5H4 2.5zM323 2.1v1.5-1.5zm335.5 327.4h1.5-1.5zm-6 121a1.5 1.5 0 00-3-1l3 1zm-321.3 179a1.5 1.5 0 00.6 3l-.6-3zm-8.3 29c-76.5 3-157.3-36.4-218.5-96.5C43 502 1.8 421.5 4 342.5H1c-2.2 80 39.6 161.3 101.3 221.7 61.6 60.4 143.2 100.3 220.7 97.3v-3zM4 342.5C8.4 184.1 116 16 323 3.6l-.1-3C113.9 13.1 5.4 182.8 1 342.5h3zM323 3.6C426.6-2.5 511.4 42.2 569.7 107c58.4 64.7 90 149.2 87.4 222.5l3 .2c2.7-74.2-29.3-159.5-88.1-224.7C513 39.6 427.4-5.6 322.9.6l.2 3zm326.6 446c-47.3 141.1-173 203-326.7 208.9l.1 3c154.4-6 281.7-68.2 329.4-211l-2.8-1zm7.4-120.2c-1.4 39.4-25.6 104.4-78.2 164.5-52.5 60.2-133.2 115.4-247.6 135.6l.6 3c115-20.3 196.4-76 249.3-136.6 52.9-60.5 77.4-126 78.9-166.3l-3-.2z" opacity=".8"/>
  <path fill="#4700D6" d="M408.5 684v1.5-1.5zM314 594.5h1.5-1.5zm91.5-93.5v1.5-1.5zm90 93.4a1.5 1.5 0 103 .1l-3-.1zm-9.6-40.3a1.5 1.5 0 00-2.8.8l2.8-.8zm-77.5 128.4c-23 .9-46.6-11.2-64.2-28.7-17.7-17.4-29.2-39.9-28.7-59.3h-3c-.6 20.4 11.5 43.7 29.6 61.5 18 17.8 42.3 30.4 66.4 29.5v-3zm-92.9-88c1.1-39.4 34.2-90.3 90-92v-3c-57.9 1.7-91.9 54.4-93 95h3zm90-92c55.9-1.6 92.5 42.2 90 91.9l3 .1c2.5-51.2-35.3-96.7-93-95v3zm77.6 52.4c15.9 54.4 5.2 85.9-13 103.9-18.4 18.1-45 23-61.7 23.7l.1 3c17-.6 44.5-5.7 63.7-24.6 19.3-19 29.8-51.7 13.7-106.8l-2.8.8z" opacity=".5"/>
  <path fill="#FD3" d="M114 567.9l-1-1 1 1zm-.5 94.2a1.5 1.5 0 103-.2l-3 .2zm137-274.6l.1-1.5H249v1.6l1.6-.1zm82 2v1.5h1.5v-1.5h-1.5zm-3-104.5l-.1-1.5h-1.5v1.5h1.6zm54.5-65.1l.1-1.5-1.8-.2.2 1.9 1.5-.2zM524 114v1.5h1.5v-1.4l-1.5-.1zm4.5-92c-.6-.6-1.5-.7-2.1-.1l-10 9.2a1.5 1.5 0 102.1 2.2l8.8-8.2 8.2 8.8a1.5 1.5 0 102.2-2l-9.2-10zM112.9 566.8l-.7 1.2-.4 1.3-.5 3.8c-.3 3-.5 6.9-.5 11.4-.2 9 .1 20.7.5 32.2a1870.1 1870.1 0 002.2 45.4l1.5-.1h1.5v-.1-.2a116.7 116.7 0 01-.2-3.6 2030.7 2030.7 0 01-2-41.5c-.4-11.5-.7-23-.5-32a142.8 142.8 0 011-14.6l.2-1c0-.1.1-.2 0-.1l-2-2zm78.5-.2s-.3.2-1 .3l-2.8.2h-9c-7.1-.2-16.3-.7-25.5-1.2s-18.4-1-25.6-1a92.4 92.4 0 00-12.3.8c-.8.2-1.7.5-2.3 1.1l2.2 2.1.9-.3a89.2 89.2 0 0111.5-.7c7 0 16.2.5 25.4 1s18.5 1 25.7 1.2a128 128 0 0012.3-.3c.7 0 1.6-.3 2.2-.7l-1.7-2.5zM191 457l-.7 1.2-.3 1.5a199 199 0 00-.5 17c.2 10.2.8 23.5 1.3 36.7.6 13.3 1.1 26.4 1.2 36.5a165 165 0 01-.6 16l-.2.8c-.1.2-.1 0 0 0l1.8 2.4c.5-.4.8-.9 1-1.3l.3-1.4a167.6 167.6 0 00.7-16.5c0-10.1-.6-23.4-1.2-36.6-.5-13.3-1.1-26.5-1.3-36.7a195.7 195.7 0 01.5-16.4l.2-1c0-.3.1-.3 0-.2l-2.2-2zm58.6-.2h-.1l-.6.2-2 .2h-6.7l-18.9-1.3c-6.7-.4-13.5-.9-18.9-.9a54.5 54.5 0 00-9.4.9c-.7.2-1.4.5-2 1l2.2 2.1h.2l.5-.3 2-.4c1.6-.2 3.9-.3 6.5-.3 5.3 0 12 .5 18.7 1 6.8.4 13.6 1 19 1.1a81.3 81.3 0 009.3-.2 5 5 0 002-.7l-1.8-2.4zm.9-69.3l-1.5.1v.2a317 317 0 00.6 10.4c.4 6.3.8 14.9 1 23.5.3 8.6.5 17.3.2 24a80.3 80.3 0 01-1 10.6l-.2.5c-.1.1 0 0 0 0l1.7 2.4c.4-.2.7-.6.9-1l.4-1a82.8 82.8 0 001.2-11.4c.3-6.8.1-15.6-.2-24.2a1097.6 1097.6 0 00-1.6-34v-.2l-1.5.1zm81.9.5l-81.9-2v3l81.8 2 .1-3zM328 285l3 104.5h3L331 285h-3zm56-4.5a980.5 980.5 0 00-47.1 2.5l-5.5.4h-1.9l-.1.1v1.5l.2 1.5h.5l1.5-.1a8239.5 8239.5 0 0152.4-2.9v-3zm0-60.6l-1.5.2v.7l.3 2A664.2 664.2 0 01385 251c.4 7.8.7 15.5.3 21.2-.1 2.9-.4 5.2-.9 6.7-.2.8-.4 1.3-.6 1.5-.1.2-.1.1 0 .1v3a3 3 0 002.4-1.3c.5-.7.9-1.5 1.1-2.5.6-1.8.9-4.4 1-7.3.4-6 .1-13.8-.3-21.5a590 590 0 00-2.6-30.5v-.5-.1H384zm62.7 0c0-.5.4-.6 0-.4a44.9 44.9 0 01-8.6 1.2c-6 .3-14 .1-22-.2a783.5 783.5 0 01-31.3-2h-.5a11.4 11.4 0 01-.2-.1l-.1 1.5-.2 1.5h.8a785 785 0 0031.4 2c8 .4 16.1.6 22.2.4 3-.2 5.7-.4 7.6-.8a9 9 0 002.4-.9c.6-.3 1.5-1 1.5-2.2h-3zm.5-107a3 3 0 00-.8 1.1l-.3 1.4a170.9 170.9 0 00-1.1 15.8c-.3 9.7-.1 22.3.1 35 .6 25.4 1.6 50.9 1.6 53.7h3c0-2.8-1-28.5-1.6-53.8a911 911 0 01-.2-34.8 168 168 0 011-15.3l.3-.8c.1-.3.1-.2 0 0l-2-2.4zm77 1.1v-1.5h-.8a838.6 838.6 0 00-10.5-.5l-25.1-.8c-9.3-.2-18.6-.3-26-.2a125.6 125.6 0 00-12.4 1 9 9 0 00-1.1.3l-1 .5 1.9 2.4.1-.1.8-.2 2.7-.4 9-.5a1553.9 1553.9 0 0161.4 1.4h.6l.2.1.1-1.5zm1.8-91l-3.4 91h3l3.4-91h-3z" opacity=".7"/>
  <path fill="#E60053" d="M83.8 134.2c-.4-.4-10.9-43.7-7.6-43.4 3.3.2 40 15 40 15s-32 28.8-32.4 28.4z" opacity=".7"/>
  <path fill="#FD3" d="M570.5 139.4c0-.4 11.8-28.1 13.5-26.7 1.6 1.5 15.5 24.4 15.5 24.4s-29 2.7-29 2.3z" opacity=".8"/>
  <path fill="#4700D6" d="M351 389.3c-.2 6.4-3.5 13.3-14.5 13.7-11 .4-14.7-6.8-14.5-13.7.2-7 5.5-14 14.5-14.3 9-.3 14.7 7.9 14.5 14.3z" opacity=".9"/>
  <path fill="#E60053" d="M461 171.3c-.2 6.4-6 12.4-13.5 12.7-7.5.3-14.7-7.8-14.5-14.7.2-7 5.5-13 14.5-13.3 9-.3 13.7 8.9 13.5 15.3z" opacity=".7"/>
  <path fill="#FD3" d="M513 324.3c-.2 6.4-6.5 15.4-13.5 15.7-7 .3-13.7-6.8-13.5-13.7.2-7 5.1-14 13.5-14.3 8.4-.2 13.7 5.9 13.5 12.3z" opacity=".8"/>
  <path fill="#E60053" d="M305 644a181 181 0 01-20 18c-1-.8-18-18.7-18-18.7l18.7-17.3s20 17 19.3 18z" opacity=".8"/>
  <path fill="#4700D6" d="M646 420.8c-.3 8.9-13.7 23.3-22.7 19.6-9-3.7-15.6-9.3-15.3-18.8.3-9.5 6.3-19.2 18.4-19.6a19 19 0 0119.6 18.8z" opacity=".8"/>
</svg>
