<svg data-testid="color-logo" alt="" viewBox="0 0 185 53"><path d="M42.74 12.29c-.18 5.44-5.97 11.41-12.29 11.67-6.32.18-12.46-5.79-12.29-11.76C18.43 6.32 22.82.27 30.45 0c7.63-.17 12.46 6.76 12.29 12.29z" fill="#e60053"></path><path d="M28.7 48.79c0-.35 14.22-26.59 15.8-25.01 1.49 1.58 13.16 25.36 13.16 25.36s-28.96 0-28.96-.35z" fill="#4700d6"></path><path d="M32.21 32.91c-3.71 6.97-7.93 13.66-12.64 20.01L0 41.51l11.67-19.22s20.97 9.65 20.53 10.53v.09z" fill="#fddb12"></path><path d="M73.76 27.37h5.23L72.27 46h-5.14l-6.68-18.63h5.47l3.88 13.74 3.96-13.74zM86.3 30.89c-1.13 0-2.01.35-2.63 1.06-.62.71-1 1.66-1.16 2.87h7.57c-.08-1.29-.47-2.26-1.18-2.92-.69-.67-1.56-1.01-2.6-1.01zm0-4.01c1.55 0 2.95.29 4.19.87 1.24.58 2.27 1.5 3.08 2.75.73 1.11 1.2 2.39 1.42 3.85.13.85.18 2.08.15 3.69H82.39c.07 1.87.66 3.18 1.76 3.93.67.47 1.48.7 2.43.7 1 0 1.82-.28 2.44-.85.34-.31.64-.73.91-1.28h4.97c-.13 1.11-.7 2.23-1.73 3.37-1.6 1.81-3.83 2.72-6.7 2.72-2.37 0-4.46-.76-6.27-2.29-1.81-1.53-2.72-4.01-2.72-7.45 0-3.22.81-5.7 2.44-7.42 1.65-1.73 3.77-2.59 6.38-2.59zM105.96 26.93c1.93 0 3.5.51 4.72 1.52 1.23 1 1.85 2.67 1.85 5.01V46h-4.99V34.67c0-.98-.13-1.73-.39-2.26-.48-.96-1.39-1.44-2.73-1.44-1.65 0-2.79.7-3.4 2.1-.32.74-.48 1.69-.48 2.84V46h-4.85V27.41h4.7v2.72c.63-.96 1.22-1.65 1.78-2.07.98-.76 2.25-1.13 3.79-1.13z" fill="#1D0354"></path><path d="M112.32 31.01v-3.47h2.6v-5.2h4.82v5.2h3.03v3.47h-3.03v9.84c0 .76.1 1.24.29 1.44.19.18.79.27 1.78.27h.46l.5-.03v3.64l-2.31.09c-2.3.08-3.87-.32-4.72-1.2-.55-.56-.82-1.42-.82-2.58V31.01h-2.6zM127.94 27.37V38.6c0 1.06.12 1.86.38 2.39.44.95 1.32 1.42 2.62 1.42 1.66 0 2.8-.67 3.42-2.02.32-.73.48-1.69.48-2.89V27.37h4.94V46h-4.73v-2.63c-.04.06-.16.23-.34.51-.18.28-.4.54-.65.75-.76.68-1.5 1.15-2.22 1.4-.71.25-1.54.38-2.5.38-2.76 0-4.61-.99-5.57-2.97-.53-1.09-.8-2.71-.8-4.84V27.37h4.97zM151.8 26.93c.09 0 .17.01.22.02.07 0 .21.01.43.02v4.99c-.31-.03-.58-.06-.82-.07-.24-.01-.43-.02-.58-.02-1.96 0-3.27.64-3.95 1.91-.38.72-.56 1.82-.56 3.32V46h-4.9V27.37h4.65v3.25c.75-1.24 1.41-2.09 1.97-2.55.9-.76 2.09-1.14 3.54-1.14z" fill="#1D0354"></path><path d="M159.87 30.89c-1.13 0-2 .35-2.63 1.06-.62.71-1 1.66-1.16 2.87h7.57c-.08-1.29-.47-2.26-1.18-2.92-.7-.67-1.56-1.01-2.6-1.01zm0-4.01c1.55 0 2.95.29 4.19.87 1.24.58 2.27 1.5 3.08 2.75.73 1.11 1.2 2.39 1.42 3.85.12.85.18 2.08.15 3.69h-12.75c.07 1.87.65 3.18 1.76 3.93.67.47 1.48.7 2.43.7 1 0 1.82-.28 2.44-.85.34-.31.64-.73.9-1.28h4.97c-.13 1.11-.7 2.23-1.73 3.37-1.6 1.81-3.83 2.72-6.7 2.72-2.37 0-4.46-.76-6.27-2.29-1.81-1.53-2.72-4.01-2.72-7.45 0-3.22.82-5.7 2.44-7.42 1.66-1.73 3.78-2.59 6.39-2.59z" fill="#1D0354"></path><path d="M173 40.05c.1.87.32 1.48.67 1.85.6.65 1.72.97 3.35.97.96 0 1.71-.14 2.27-.43.57-.28.85-.71.85-1.28 0-.55-.23-.96-.68-1.25-.46-.28-2.15-.77-5.08-1.47-2.11-.52-3.59-1.18-4.46-1.97-.87-.77-1.3-1.89-1.3-3.35 0-1.72.67-3.2 2.02-4.43 1.35-1.24 3.26-1.86 5.71-1.86 2.32 0 4.21.47 5.67 1.4 1.47.92 2.31 2.52 2.53 4.8h-4.87c-.07-.63-.25-1.12-.53-1.49-.53-.66-1.45-.99-2.73-.99-1.06 0-1.82.17-2.27.5-.44.33-.67.72-.67 1.16 0 .56.24.96.72 1.21.48.26 2.17.71 5.08 1.35 1.94.46 3.39 1.15 4.36 2.07.96.93 1.44 2.1 1.44 3.5 0 1.85-.69 3.36-2.07 4.53-1.37 1.16-3.49 1.74-6.36 1.74-2.93 0-5.09-.62-6.49-1.85-1.39-1.24-2.08-2.82-2.08-4.73H173zM55.95 10.68h-2.68V8.24h2.68v2.44zm-2.68 1.21h2.68V22h-2.68V11.89zM60.73 11.65c.61 0 1.16.14 1.63.41.48.27.86.64 1.16 1.11V8.34h2.68V22h-2.57v-1.4c-.38.6-.81 1.04-1.29 1.31s-1.08.41-1.8.41c-1.18 0-2.18-.48-2.99-1.43-.8-.96-1.21-2.19-1.21-3.68 0-1.73.4-3.08 1.19-4.07.81-1 1.87-1.49 3.2-1.49zm.58 8.44c.75 0 1.32-.28 1.71-.83.39-.56.58-1.28.58-2.16 0-1.24-.31-2.12-.94-2.65-.38-.32-.83-.48-1.34-.48-.77 0-1.34.29-1.71.88-.36.58-.54 1.31-.54 2.17 0 .93.18 1.68.55 2.25.38.54.94.82 1.69.82zM71.09 13.8c-.61 0-1.09.19-1.43.58-.33.38-.54.9-.63 1.56h4.11c-.04-.7-.26-1.23-.64-1.59-.38-.37-.85-.55-1.41-.55zm0-2.18c.84 0 1.6.16 2.27.47s1.23.81 1.67 1.49c.4.6.65 1.3.77 2.09.07.46.1 1.13.08 2h-6.92c.04 1.01.36 1.73.96 2.13.36.25.8.38 1.32.38.54 0 .99-.15 1.33-.46.19-.17.35-.4.49-.7h2.7c-.07.6-.38 1.21-.94 1.83-.87.98-2.08 1.48-3.64 1.48-1.29 0-2.42-.41-3.4-1.24-.98-.83-1.48-2.18-1.48-4.04 0-1.75.44-3.09 1.33-4.03.89-.93 2.04-1.4 3.46-1.4z" fill="#1D0354"></path><path d="M81.73 17.08c-.17.11-.34.19-.51.26-.17.06-.4.12-.7.18l-.59.11c-.56.1-.96.22-1.2.36-.41.24-.61.62-.61 1.12 0 .45.12.78.37.98.25.2.56.3.92.3.57 0 1.09-.17 1.57-.5.48-.33.73-.94.75-1.83v-.98zm-1.61-1.23c.49-.06.84-.14 1.05-.23.38-.16.57-.41.57-.75 0-.41-.15-.7-.44-.85-.28-.16-.71-.24-1.26-.24-.62 0-1.07.15-1.33.46-.19.23-.31.54-.37.93h-2.55c.06-.88.3-1.61.74-2.18.7-.89 1.9-1.34 3.6-1.34 1.11 0 2.09.22 2.95.66.86.44 1.29 1.27 1.29 2.49v4.64c0 .32.01.71.02 1.17.02.35.07.58.16.71.09.12.22.23.39.31V22h-2.88c-.08-.2-.14-.4-.17-.58-.03-.18-.06-.38-.07-.61-.36.4-.79.73-1.26 1.01-.57.33-1.21.49-1.93.49-.92 0-1.67-.26-2.27-.78-.59-.53-.89-1.27-.89-2.23 0-1.24.48-2.14 1.44-2.7.53-.3 1.3-.52 2.32-.65l.89-.1z" fill="#1D0354"></path><path d="M87.27 18.77c.06.47.18.8.36 1 .33.35.93.53 1.82.53.52 0 .93-.08 1.23-.23.31-.15.46-.39.46-.7 0-.3-.12-.52-.37-.68-.25-.15-1.17-.42-2.76-.8-1.14-.28-1.95-.64-2.42-1.07-.47-.42-.71-1.03-.71-1.82 0-.93.36-1.73 1.09-2.4.74-.67 1.77-1.01 3.1-1.01 1.26 0 2.29.25 3.08.76.8.5 1.26 1.37 1.37 2.61H90.9c-.04-.34-.13-.61-.29-.81-.29-.36-.79-.54-1.48-.54-.58 0-.99.09-1.23.27-.24.18-.36.39-.36.63 0 .3.13.52.39.66s1.18.39 2.76.73c1.05.25 1.84.62 2.37 1.12.52.51.78 1.14.78 1.9 0 1-.37 1.82-1.12 2.46-.74.63-1.89.95-3.45.95-1.59 0-2.76-.33-3.53-1-.75-.67-1.13-1.53-1.13-2.57h2.66z" fill="#1D0354"></path><path d="M102.97 19.11h-1.52V22h-2.59v-2.89h-5.33V16.8l4.94-8.16h2.97v8.41h1.52v2.06zm-4.11-2.07v-5.81l-3.37 5.81h3.37z" fill="#1D0354"></path><path d="M102.68 22c.03-.96.23-1.85.62-2.64.38-.9 1.27-1.85 2.67-2.85 1.22-.87 2.01-1.5 2.37-1.87.55-.59.83-1.23.83-1.93 0-.57-.16-1.04-.47-1.42-.32-.38-.77-.57-1.36-.57-.8 0-1.35.3-1.64.9-.17.35-.27.9-.3 1.65h-2.57c.04-1.14.25-2.07.62-2.77.7-1.34 1.96-2.01 3.76-2.01 1.42 0 2.55.4 3.4 1.19.84.79 1.26 1.83 1.26 3.13 0 1-.3 1.88-.89 2.65-.39.51-1.03 1.09-1.92 1.72l-1.06.74c-.66.47-1.12.81-1.36 1.02-.24.21-.44.45-.61.73h5.87V22h-9.22z" fill="#1D0354"></path></svg>
